<mxfile host="app.diagrams.net" modified="2024-07-22T19:28:28.956Z" agent="Mozilla/5.0 (Windows NT 10.0; Win64; x64) AppleWebKit/537.36 (KHTML, like Gecko) Chrome/126.0.0.0 Safari/537.36" etag="9rLMqPmJ8QnAr9q-SyeA" version="24.7.1" type="github">
  <diagram id="C5RBs43oDa-KdzZeNtuy" name="Page-1">
    <mxGraphModel dx="583" dy="666" grid="1" gridSize="10" guides="1" tooltips="1" connect="1" arrows="1" fold="1" page="1" pageScale="1" pageWidth="850" pageHeight="1100" math="0" shadow="0">
      <root>
        <mxCell id="WIyWlLk6GJQsqaUBKTNV-0" />
        <mxCell id="WIyWlLk6GJQsqaUBKTNV-1" parent="WIyWlLk6GJQsqaUBKTNV-0" />
        <mxCell id="iUFC-y7mr5Pm6ksjY3mE-2" value="Landing Page y Navegación Básica" style="text;html=1;align=center;verticalAlign=middle;whiteSpace=wrap;rounded=0;fontStyle=1" vertex="1" parent="WIyWlLk6GJQsqaUBKTNV-1">
          <mxGeometry x="305" y="30" width="240" height="40" as="geometry" />
        </mxCell>
        <mxCell id="iUFC-y7mr5Pm6ksjY3mE-15" value="" style="group" vertex="1" connectable="0" parent="WIyWlLk6GJQsqaUBKTNV-1">
          <mxGeometry x="65" y="80" width="720" height="110" as="geometry" />
        </mxCell>
        <mxCell id="iUFC-y7mr5Pm6ksjY3mE-10" style="edgeStyle=orthogonalEdgeStyle;rounded=0;orthogonalLoop=1;jettySize=auto;html=1;entryX=0;entryY=0.5;entryDx=0;entryDy=0;endArrow=none;endFill=0;" edge="1" parent="iUFC-y7mr5Pm6ksjY3mE-15" target="iUFC-y7mr5Pm6ksjY3mE-4">
          <mxGeometry relative="1" as="geometry">
            <mxPoint x="80" y="70" as="sourcePoint" />
          </mxGeometry>
        </mxCell>
        <mxCell id="iUFC-y7mr5Pm6ksjY3mE-11" style="edgeStyle=orthogonalEdgeStyle;rounded=0;orthogonalLoop=1;jettySize=auto;html=1;entryX=0.5;entryY=0;entryDx=0;entryDy=0;curved=1;" edge="1" parent="iUFC-y7mr5Pm6ksjY3mE-15" target="iUFC-y7mr5Pm6ksjY3mE-5">
          <mxGeometry relative="1" as="geometry">
            <mxPoint x="80" y="70" as="sourcePoint" />
            <Array as="points">
              <mxPoint x="80" y="10" />
              <mxPoint x="420" y="10" />
            </Array>
          </mxGeometry>
        </mxCell>
        <mxCell id="iUFC-y7mr5Pm6ksjY3mE-12" style="edgeStyle=orthogonalEdgeStyle;rounded=0;orthogonalLoop=1;jettySize=auto;html=1;entryX=0.5;entryY=0;entryDx=0;entryDy=0;curved=1;" edge="1" parent="iUFC-y7mr5Pm6ksjY3mE-15" target="iUFC-y7mr5Pm6ksjY3mE-7">
          <mxGeometry relative="1" as="geometry">
            <mxPoint x="80" y="70" as="sourcePoint" />
            <Array as="points">
              <mxPoint x="80" />
              <mxPoint x="660" />
            </Array>
          </mxGeometry>
        </mxCell>
        <mxCell id="iUFC-y7mr5Pm6ksjY3mE-0" value="&lt;b&gt;Usuario&lt;/b&gt;" style="shape=umlActor;verticalLabelPosition=bottom;verticalAlign=top;html=1;outlineConnect=0;" vertex="1" parent="iUFC-y7mr5Pm6ksjY3mE-15">
          <mxGeometry y="30" width="40" height="80" as="geometry" />
        </mxCell>
        <mxCell id="iUFC-y7mr5Pm6ksjY3mE-6" style="edgeStyle=orthogonalEdgeStyle;rounded=0;orthogonalLoop=1;jettySize=auto;html=1;exitX=1;exitY=0.5;exitDx=0;exitDy=0;entryX=0;entryY=0.5;entryDx=0;entryDy=0;" edge="1" parent="iUFC-y7mr5Pm6ksjY3mE-15" source="iUFC-y7mr5Pm6ksjY3mE-4" target="iUFC-y7mr5Pm6ksjY3mE-5">
          <mxGeometry relative="1" as="geometry" />
        </mxCell>
        <mxCell id="iUFC-y7mr5Pm6ksjY3mE-13" value="&amp;lt;&amp;lt;include&amp;gt;&amp;gt;" style="edgeLabel;html=1;align=center;verticalAlign=middle;resizable=0;points=[];" vertex="1" connectable="0" parent="iUFC-y7mr5Pm6ksjY3mE-6">
          <mxGeometry x="-0.3072" y="-4" relative="1" as="geometry">
            <mxPoint as="offset" />
          </mxGeometry>
        </mxCell>
        <mxCell id="iUFC-y7mr5Pm6ksjY3mE-4" value="Menú inicial" style="ellipse;whiteSpace=wrap;html=1;" vertex="1" parent="iUFC-y7mr5Pm6ksjY3mE-15">
          <mxGeometry x="124.13" y="50" width="120" height="40" as="geometry" />
        </mxCell>
        <mxCell id="iUFC-y7mr5Pm6ksjY3mE-8" style="edgeStyle=orthogonalEdgeStyle;rounded=0;orthogonalLoop=1;jettySize=auto;html=1;exitX=1;exitY=0.5;exitDx=0;exitDy=0;entryX=0;entryY=0.5;entryDx=0;entryDy=0;" edge="1" parent="iUFC-y7mr5Pm6ksjY3mE-15" source="iUFC-y7mr5Pm6ksjY3mE-5" target="iUFC-y7mr5Pm6ksjY3mE-7">
          <mxGeometry relative="1" as="geometry" />
        </mxCell>
        <mxCell id="iUFC-y7mr5Pm6ksjY3mE-14" value="&amp;lt;&amp;lt;include&amp;gt;&amp;gt;" style="edgeLabel;html=1;align=center;verticalAlign=middle;resizable=0;points=[];" vertex="1" connectable="0" parent="iUFC-y7mr5Pm6ksjY3mE-8">
          <mxGeometry x="-0.0174" relative="1" as="geometry">
            <mxPoint as="offset" />
          </mxGeometry>
        </mxCell>
        <mxCell id="iUFC-y7mr5Pm6ksjY3mE-5" value="Navegar y buscar productos" style="ellipse;whiteSpace=wrap;html=1;" vertex="1" parent="iUFC-y7mr5Pm6ksjY3mE-15">
          <mxGeometry x="360" y="45" width="120" height="50" as="geometry" />
        </mxCell>
        <mxCell id="iUFC-y7mr5Pm6ksjY3mE-7" value="Ver producto" style="ellipse;whiteSpace=wrap;html=1;" vertex="1" parent="iUFC-y7mr5Pm6ksjY3mE-15">
          <mxGeometry x="600" y="50" width="120" height="40" as="geometry" />
        </mxCell>
        <mxCell id="iUFC-y7mr5Pm6ksjY3mE-53" value="&lt;b&gt;Autenticación&lt;/b&gt;" style="text;html=1;align=center;verticalAlign=middle;whiteSpace=wrap;rounded=0;" vertex="1" parent="WIyWlLk6GJQsqaUBKTNV-1">
          <mxGeometry x="305" y="240" width="240" height="40" as="geometry" />
        </mxCell>
        <mxCell id="iUFC-y7mr5Pm6ksjY3mE-20" value="&lt;b&gt;Usuario&lt;/b&gt;" style="shape=umlActor;verticalLabelPosition=bottom;verticalAlign=top;html=1;outlineConnect=0;" vertex="1" parent="WIyWlLk6GJQsqaUBKTNV-1">
          <mxGeometry x="65" y="330" width="40" height="80" as="geometry" />
        </mxCell>
        <mxCell id="iUFC-y7mr5Pm6ksjY3mE-21" style="edgeStyle=orthogonalEdgeStyle;rounded=0;orthogonalLoop=1;jettySize=auto;html=1;exitX=1;exitY=0.5;exitDx=0;exitDy=0;entryX=0;entryY=0.5;entryDx=0;entryDy=0;" edge="1" parent="WIyWlLk6GJQsqaUBKTNV-1" source="iUFC-y7mr5Pm6ksjY3mE-23">
          <mxGeometry relative="1" as="geometry">
            <mxPoint x="440.00000000000216" y="380" as="targetPoint" />
          </mxGeometry>
        </mxCell>
        <mxCell id="iUFC-y7mr5Pm6ksjY3mE-59" value="&amp;lt;&amp;lt;include&amp;gt;&amp;gt;" style="edgeLabel;html=1;align=center;verticalAlign=middle;resizable=0;points=[];" vertex="1" connectable="0" parent="iUFC-y7mr5Pm6ksjY3mE-21">
          <mxGeometry x="-0.2323" y="-3" relative="1" as="geometry">
            <mxPoint as="offset" />
          </mxGeometry>
        </mxCell>
        <mxCell id="iUFC-y7mr5Pm6ksjY3mE-56" style="edgeStyle=orthogonalEdgeStyle;rounded=0;orthogonalLoop=1;jettySize=auto;html=1;exitX=0;exitY=0.5;exitDx=0;exitDy=0;endArrow=none;endFill=0;" edge="1" parent="WIyWlLk6GJQsqaUBKTNV-1" source="iUFC-y7mr5Pm6ksjY3mE-23">
          <mxGeometry relative="1" as="geometry">
            <mxPoint x="140" y="380" as="targetPoint" />
          </mxGeometry>
        </mxCell>
        <mxCell id="iUFC-y7mr5Pm6ksjY3mE-57" value="&amp;lt;&amp;lt;include&amp;gt;&amp;gt;" style="rounded=0;orthogonalLoop=1;jettySize=auto;html=1;exitX=1;exitY=0;exitDx=0;exitDy=0;entryX=0;entryY=0.5;entryDx=0;entryDy=0;" edge="1" parent="WIyWlLk6GJQsqaUBKTNV-1" source="iUFC-y7mr5Pm6ksjY3mE-23" target="iUFC-y7mr5Pm6ksjY3mE-55">
          <mxGeometry relative="1" as="geometry" />
        </mxCell>
        <mxCell id="iUFC-y7mr5Pm6ksjY3mE-58" style="rounded=0;orthogonalLoop=1;jettySize=auto;html=1;exitX=1;exitY=1;exitDx=0;exitDy=0;entryX=0;entryY=0.5;entryDx=0;entryDy=0;" edge="1" parent="WIyWlLk6GJQsqaUBKTNV-1" source="iUFC-y7mr5Pm6ksjY3mE-23" target="iUFC-y7mr5Pm6ksjY3mE-54">
          <mxGeometry relative="1" as="geometry" />
        </mxCell>
        <mxCell id="iUFC-y7mr5Pm6ksjY3mE-60" value="&amp;lt;&amp;lt;include&amp;gt;&amp;gt;" style="edgeLabel;html=1;align=center;verticalAlign=middle;resizable=0;points=[];" vertex="1" connectable="0" parent="iUFC-y7mr5Pm6ksjY3mE-58">
          <mxGeometry x="-0.1095" relative="1" as="geometry">
            <mxPoint as="offset" />
          </mxGeometry>
        </mxCell>
        <mxCell id="iUFC-y7mr5Pm6ksjY3mE-23" value="Menú inicial" style="ellipse;whiteSpace=wrap;html=1;" vertex="1" parent="WIyWlLk6GJQsqaUBKTNV-1">
          <mxGeometry x="185" y="360" width="120" height="40" as="geometry" />
        </mxCell>
        <mxCell id="iUFC-y7mr5Pm6ksjY3mE-26" value="Navegar y buscar productos" style="ellipse;whiteSpace=wrap;html=1;" vertex="1" parent="WIyWlLk6GJQsqaUBKTNV-1">
          <mxGeometry x="440" y="350" width="120" height="50" as="geometry" />
        </mxCell>
        <mxCell id="iUFC-y7mr5Pm6ksjY3mE-54" value="Menú inicial" style="ellipse;whiteSpace=wrap;html=1;" vertex="1" parent="WIyWlLk6GJQsqaUBKTNV-1">
          <mxGeometry x="440" y="440" width="120" height="40" as="geometry" />
        </mxCell>
        <mxCell id="iUFC-y7mr5Pm6ksjY3mE-55" value="Menú inicial" style="ellipse;whiteSpace=wrap;html=1;" vertex="1" parent="WIyWlLk6GJQsqaUBKTNV-1">
          <mxGeometry x="440" y="280" width="120" height="40" as="geometry" />
        </mxCell>
      </root>
    </mxGraphModel>
  </diagram>
</mxfile>
